<svg xmlns="http://www.w3.org/2000/svg" viewBox="0 0 96 96" role="img" aria-label="Orb">
  <defs>
    <linearGradient id="g" x1="18" y1="18" x2="78" y2="78" gradientUnits="userSpaceOnUse">
      <stop stop-color="#7AA2F7"/><stop offset=".55" stop-color="#A78BFA"/><stop offset="1" stop-color="#7DCFFF"/>
    </linearGradient>
  </defs>
  <circle cx="48" cy="48" r="39" fill="#111522" stroke="#2A3042" stroke-width="2"/>
  <g fill="url(#g)">
    <circle cx="24" cy="42" r="2.4"/><circle cx="29" cy="31" r="1.6"/><circle cx="35" cy="53" r="2"/><circle cx="40" cy="24" r="1.3"/>
    <circle cx="43" cy="43" r="1.7"/><circle cx="47" cy="58" r="2.2"/><circle cx="52" cy="33" r="1.9"/><circle cx="57" cy="48" r="2.3"/>
    <circle cx="63" cy="27" r="1.5"/><circle cx="66" cy="60" r="1.9"/><circle cx="72" cy="43" r="2.1"/><circle cx="58" cy="70" r="1.4"/>
  </g>
  <path d="M19 53c13-22 24-31 41-23 10 5 12 15 18 18M19 61c12-9 22-12 33-7 9 4 15 13 25 10M27 27c10 8 19 13 30 13 8 0 14-3 20-9" fill="none" stroke="url(#g)" stroke-linecap="round" stroke-width="2.2" opacity=".9"/>
</svg>
